# xmcd
#
# Track frame offsets: 
#        150
#        24704
#        54421
#        91165
#        118292
#        135076
#        174953
#        199207
#        224708
#        247380
#        268191
#        292765
#        312744
#        334894
#
# Disc length: 4639 seconds
#
# Revision: 1
# Processed by: cddbd v1.5.2PL0 Copyright (c) Steve Scherf et al.
# Submitted via: ExactAudioCopyFreeDBPlugin 1.0
#
DISCID=dc121d0e
DTITLE=Ray Charles - Ray Charles:  Eighteen Classic Albums
DYEAR=2017
DGENRE=Rhythm and Blues
TTITLE0=Hallelujah, I Love Her So
TTITLE1=Blue Genius
TTITLE2=X-Ray Blues
TTITLE3=Soul Meeting
TTITLE4=Love on My Mind
TTITLE5=Bag's of Blues
TTITLE6=The Genius After Hours
TTITLE7=Ain't Misbehavin'
TTITLE8=Dawn Ray
TTITLE9=Joy Ride
TTITLE10=Hornful Soul
TTITLE11=The Man I Love
TTITLE12=Charlesville
TTITLE13=Music, Music, Music
EXTD=YEAR: 1961
EXTT0=
EXTT1=
EXTT2=
EXTT3=
EXTT4=
EXTT5=
EXTT6=
EXTT7=
EXTT8=
EXTT9=
EXTT10=
EXTT11=
EXTT12=
EXTT13=
PLAYORDER=
